<svg width="25" height="33" viewBox="0 0 25 33" fill="none" xmlns="http://www.w3.org/2000/svg">
<path d="M12.5 25C10.9792 24.8125 9.46875 24.401 7.96875 23.7656C6.46875 23.1302 5.13021 22.2188 3.95312 21.0312C2.77604 19.8438 1.82292 18.3438 1.09375 16.5312C0.364583 14.7188 0 12.5417 0 10V8.75H1.25C2.3125 8.75 3.40625 8.88542 4.53125 9.15625C5.65625 9.42708 6.70833 9.83333 7.6875 10.375C7.9375 8.58333 8.50521 6.74479 9.39062 4.85938C10.276 2.97396 11.3125 1.35417 12.5 0C13.6875 1.35417 14.724 2.97396 15.6094 4.85938C16.4948 6.74479 17.0625 8.58333 17.3125 10.375C18.2917 9.83333 19.3438 9.42708 20.4688 9.15625C21.5938 8.88542 22.6875 8.75 23.75 8.75H25V10C25 12.5417 24.6354 14.7188 23.9062 16.5312C23.1771 18.3438 22.224 19.8438 21.0469 21.0312C19.8698 22.2188 18.5365 23.1302 17.0469 23.7656C15.5573 24.401 14.0417 24.8125 12.5 25ZM12.4375 22.4375C12.2083 18.9792 11.1823 16.3646 9.35938 14.5938C7.53646 12.8229 5.27083 11.7292 2.5625 11.3125C2.79167 14.875 3.84896 17.5312 5.73438 19.2812C7.61979 21.0312 9.85417 22.0833 12.4375 22.4375ZM12.5 14.5C12.8125 14.0417 13.1927 13.5677 13.6406 13.0781C14.0885 12.5885 14.5208 12.1667 14.9375 11.8125C14.8958 10.625 14.6615 9.38542 14.2344 8.09375C13.8073 6.80208 13.2292 5.54167 12.5 4.3125C11.7708 5.54167 11.1927 6.80208 10.7656 8.09375C10.3385 9.38542 10.1042 10.625 10.0625 11.8125C10.4792 12.1667 10.9167 12.5885 11.375 13.0781C11.8333 13.5677 12.2083 14.0417 12.5 14.5ZM14.9375 21.875C15.7083 21.625 16.5104 21.2604 17.3438 20.7812C18.1771 20.3021 18.9531 19.651 19.6719 18.8281C20.3906 18.0052 21.0052 16.9792 21.5156 15.75C22.026 14.5208 22.3333 13.0417 22.4375 11.3125C20.4792 11.6042 18.7604 12.2552 17.2812 13.2656C15.8021 14.276 14.6667 15.5625 13.875 17.125C14.125 17.7917 14.3385 18.5208 14.5156 19.3125C14.6927 20.1042 14.8333 20.9583 14.9375 21.875Z" fill="#5F390A"/>
</svg>
